<?xml version="1.0" standalone="no"?>
<!DOCTYPE svg PUBLIC "-//W3C//DTD SVG 20010904//EN"
 "http://www.w3.org/TR/2001/REC-SVG-20010904/DTD/svg10.dtd">
<svg version="1.0" xmlns="http://www.w3.org/2000/svg"
 width="1080.000000pt" height="1080.000000pt" viewBox="0 0 1080.000000 1080.000000"
 preserveAspectRatio="xMidYMid meet">
<metadata>
Created by potrace 1.11, written by Peter Selinger 2001-2013
</metadata>
<g transform="translate(0.000000,1080.000000) scale(0.100000,-0.100000)"
fill="#000000" stroke="none">
<path d="M7080 8379 c-364 -40 -626 -122 -902 -281 -133 -77 -228 -150 -348
-264 -178 -172 -305 -346 -405 -557 -30 -65 -58 -117 -62 -117 -5 0 -29 44
-55 98 -107 227 -319 482 -533 644 -219 165 -416 266 -680 346 -214 66 -370
86 -614 79 -220 -6 -339 -26 -541 -93 -272 -91 -491 -222 -699 -420 -149 -141
-221 -233 -378 -484 -212 -338 -321 -676 -353 -1100 -23 -304 42 -710 174
-1080 132 -371 174 -477 268 -664 177 -353 381 -639 795 -1112 304 -348 742
-722 1468 -1254 241 -176 524 -356 827 -526 199 -111 252 -134 314 -134 59 0
91 14 213 96 57 38 117 78 134 88 18 11 57 38 87 61 30 23 107 76 170 118 285
190 1106 828 1340 1043 25 22 115 103 199 180 159 143 443 444 604 639 193
234 432 571 557 785 378 644 541 1192 544 1825 1 273 -10 361 -80 626 -112
421 -396 853 -716 1090 -101 75 -283 173 -416 223 -184 70 -435 127 -639 145
-135 12 -164 12 -273 0z m465 -194 c111 -19 199 -41 295 -74 87 -30 85 -29
241 -106 208 -102 343 -211 514 -416 22 -26 148 -213 177 -263 75 -126 178
-373 178 -423 0 -11 4 -23 8 -28 25 -28 68 -296 79 -485 9 -153 -21 -494 -58
-670 -68 -321 -144 -542 -281 -815 -107 -215 -235 -439 -322 -565 -134 -195
-331 -461 -400 -541 -17 -20 -53 -62 -81 -94 -51 -59 -121 -136 -209 -229
l-48 -51 6 80 c3 44 8 143 11 220 16 391 23 530 35 630 5 44 14 150 20 235 6
85 15 184 20 220 4 36 7 153 7 261 -2 195 -2 196 -29 237 -38 57 -70 75 -133
77 -46 2 -58 6 -86 34 -31 32 -34 32 -123 32 -50 0 -126 2 -169 5 -75 5 -78 5
-115 -25 -40 -31 -102 -134 -102 -169 0 -11 -5 -43 -12 -71 l-11 -51 -44 0
c-54 0 -94 -20 -127 -63 -61 -80 -48 -188 38 -316 80 -118 93 -185 79 -417 -6
-93 -11 -250 -12 -349 -1 -99 -4 -196 -7 -215 -2 -19 -9 -107 -14 -195 -5 -88
-16 -259 -24 -380 -8 -121 -18 -286 -21 -368 l-7 -147 -58 -48 c-32 -26 -124
-99 -206 -162 -81 -63 -178 -141 -215 -173 -37 -31 -70 -57 -73 -57 -3 0 -5
39 -5 88 0 48 -6 179 -12 292 -6 113 -15 273 -19 355 -5 83 -13 227 -19 320
-16 247 -20 317 -26 445 -3 63 -10 158 -15 210 -10 109 -25 271 -39 445 -32
369 -42 488 -51 560 -6 44 -10 106 -10 137 0 31 -4 79 -9 105 -5 26 -12 86
-15 133 l-5 85 59 34 c76 44 140 107 181 177 26 46 33 71 37 128 4 71 4 71
-37 122 -36 46 -101 104 -115 104 -3 0 -27 13 -54 29 -53 31 -242 96 -310 106
-30 5 -63 22 -105 54 -56 43 -88 63 -211 131 -96 53 -331 137 -476 169 -25 5
-56 12 -70 16 -276 63 -819 38 -1185 -55 -112 -29 -218 -62 -230 -72 -5 -4
-17 -8 -26 -8 -48 0 -284 -116 -422 -208 -290 -192 -570 -559 -722 -946 -15
-38 -31 -77 -35 -85 -18 -35 -69 -215 -85 -301 -37 -199 -46 -250 -52 -318 -3
-34 -9 -64 -13 -67 -6 -4 -81 139 -133 255 -28 62 -111 275 -152 390 -15 41
-40 110 -56 153 -31 82 -49 143 -80 272 -36 149 -36 151 -69 398 -5 43 -10
139 -10 213 0 199 16 294 109 669 4 17 16 48 25 70 10 22 22 49 26 60 34 87
162 309 256 447 142 206 316 383 484 490 226 144 344 197 571 257 160 42 446
60 619 38 238 -31 578 -151 717 -253 17 -13 35 -24 39 -24 3 0 53 -34 109 -75
248 -180 460 -437 548 -665 28 -72 66 -203 71 -245 10 -85 52 -138 109 -138
48 0 80 45 117 164 57 186 192 476 240 519 4 3 16 22 29 43 12 20 26 37 30 37
4 0 13 10 18 23 17 35 168 192 247 256 172 140 362 246 571 319 114 40 282 77
420 92 98 11 424 2 520 -15z m-2832 -1835 c155 -13 290 -41 451 -94 137 -45
300 -121 292 -135 -3 -4 -25 -11 -48 -14 -113 -16 -311 -104 -421 -188 -81
-61 -149 -142 -173 -205 -16 -42 -16 -49 -3 -73 9 -17 30 -31 59 -40 112 -34
113 -44 11 -60 -70 -11 -86 -22 -96 -63 -6 -22 -1 -33 24 -59 38 -37 38 -47 6
-59 -30 -11 -65 0 -112 36 -92 70 -170 -32 -92 -120 36 -42 120 -76 187 -76
88 0 167 61 218 168 29 62 13 60 179 18 55 -14 152 -31 215 -37 129 -13 357
-6 408 12 21 7 37 8 43 2 8 -8 21 -123 49 -433 5 -63 15 -166 20 -227 6 -62
15 -166 20 -230 6 -65 21 -244 35 -398 14 -154 29 -388 35 -520 6 -132 17
-341 25 -465 22 -353 30 -499 40 -831 4 -115 2 -159 -7 -171 -7 -8 -62 -49
-123 -92 -60 -42 -146 -102 -190 -133 -187 -133 -329 -223 -366 -233 -48 -13
-91 -3 -174 43 -33 18 -96 53 -140 77 -77 41 -279 159 -320 186 -478 317 -907
631 -1245 913 -314 261 -798 748 -935 941 -21 30 -69 96 -106 145 -36 50 -85
119 -109 155 l-42 65 6 112 c17 289 92 655 177 856 180 430 405 723 696 910
246 158 608 270 983 306 213 21 367 24 523 11z m1364 -504 c82 -49 90 -66 60
-124 -33 -64 -150 -152 -173 -130 -2 3 5 27 17 54 22 52 31 155 16 207 -10 37
7 36 80 -7z m-888 -80 c0 -58 6 -102 21 -145 27 -81 26 -85 -12 -77 -40 8 -58
23 -58 50 0 29 -52 90 -90 106 -16 7 -30 17 -30 22 0 21 37 62 84 94 79 53 85
49 85 -50z m2192 -508 c0 -7 0 -60 -1 -119 -1 -89 1 -108 17 -127 63 -74 142
-2 143 131 0 21 5 37 11 37 13 0 7 -336 -10 -535 -39 -463 -51 -650 -61 -930
-6 -176 -15 -360 -20 -410 l-8 -90 -74 -70 c-120 -113 -348 -310 -364 -313
-17 -4 -18 46 -4 258 5 80 18 282 29 450 32 491 47 994 32 1070 -18 91 -45
158 -96 236 -25 38 -45 77 -45 87 0 16 2 16 28 3 16 -8 35 -22 43 -32 8 -9 29
-23 47 -31 42 -17 80 -2 101 41 12 27 12 33 -10 72 -22 41 -23 46 -10 121 17
108 30 153 43 153 7 0 8 -30 4 -98 -8 -113 1 -146 46 -161 35 -12 72 0 88 29
6 11 16 62 21 112 6 51 15 100 20 110 11 21 29 24 30 6z"/>
<path d="M3790 6065 c-264 -45 -591 -246 -616 -380 -20 -111 111 -217 376
-303 396 -129 862 -74 1067 126 63 61 103 130 103 178 -1 112 -187 269 -407
343 -142 48 -364 63 -523 36z m-258 -275 c1 -3 -2 -31 -6 -63 -5 -37 -3 -77 4
-109 7 -28 9 -53 4 -58 -5 -5 -41 7 -84 28 -119 59 -118 96 5 178 44 30 74 39
77 24z m964 -30 c63 -48 79 -72 64 -99 -12 -24 -142 -111 -164 -111 -20 0 -20
12 0 75 8 28 16 78 17 113 2 75 10 77 83 22z"/>
</g>
</svg>
